<?xml version="1.0" encoding="UTF-8" standalone="no"?>
<svg
   xmlns:dc="http://purl.org/dc/elements/1.1/"
   xmlns:cc="http://creativecommons.org/ns#"
   xmlns:rdf="http://www.w3.org/1999/02/22-rdf-syntax-ns#"
   xmlns:svg="http://www.w3.org/2000/svg"
   xmlns="http://www.w3.org/2000/svg"
   xmlns:sodipodi="http://sodipodi.sourceforge.net/DTD/sodipodi-0.dtd"
   xmlns:inkscape="http://www.inkscape.org/namespaces/inkscape"
   version="1.0"
   width="512.000000pt"
   height="512.000000pt"
   viewBox="0 0 512.000000 512.000000"
   preserveAspectRatio="xMidYMid meet"
   id="svg91"
   sodipodi:docname="borrar.svg"
   inkscape:version="0.92.5 (2060ec1f9f, 2020-04-08)">
  <metadata
     id="metadata97">
    <rdf:RDF>
      <cc:Work
         rdf:about="">
        <dc:format>image/svg+xml</dc:format>
        <dc:type
           rdf:resource="http://purl.org/dc/dcmitype/StillImage" />
      </cc:Work>
    </rdf:RDF>
  </metadata>
  <defs
     id="defs95" />
  <sodipodi:namedview
     pagecolor="#ffffff"
     bordercolor="#666666"
     borderopacity="1"
     objecttolerance="10"
     gridtolerance="10"
     guidetolerance="10"
     inkscape:pageopacity="0"
     inkscape:pageshadow="2"
     inkscape:window-width="1856"
     inkscape:window-height="1016"
     id="namedview93"
     showgrid="false"
     inkscape:zoom="1.2539063"
     inkscape:cx="399.5514"
     inkscape:cy="341.33333"
     inkscape:window-x="64"
     inkscape:window-y="27"
     inkscape:window-maximized="1"
     inkscape:current-layer="svg91" />
  <g
     transform="translate(0.000000,512.000000) scale(0.100000,-0.100000)"
     fill="#000000"
     stroke="none"
     id="g89">
    <path
       d="M1560 4740 l0 -380 -600 0 -600 0 0 -200 0 -200 200 0 200 0 0 -1713 c0 -1674 0 -1716 20 -1791 29 -113 73 -190 160 -276 86 -87 163 -131 276 -160 75 -19 115 -20 1344 -20 1229 0 1269 1 1344 20 113 29 190 73 276 160 87 86 131 163 160 276 20 75 20 117 20 1791 l0 1713 200 0 200 0 0 200 0 200 -600 0 -600 0 0 380 0 380 -1000 0 -1000 0 0 -380z m1600 -200 l0 -180 -600 0 -600 0 0 180 0 180 600 0 600 0 0 -180z m798 -2292 l-3 -1713 -24 -38 c-13 -21 -42 -50 -64 -65 l-41 -27 -1266 0 -1266 0 -41 27 c-22 15 -51 44 -64 65 l-24 38 -3 1713 -2 1712 1400 0 1400 0 -2 -1712z"
       id="path81"
       style="fill:#000000" />
    <path
       d="M1560 2160 l0 -1000 200 0 200 0 0 1000 0 1000 -200 0 -200 0 0 -1000z"
       id="path83"
       style="fill:#000000" />
    <path
       d="M2360 2160 l0 -1000 200 0 200 0 0 1000 0 1000 -200 0 -200 0 0 -1000z"
       id="path85"
       style="fill:#000000" />
    <path
       d="M3160 2160 l0 -1000 200 0 200 0 0 1000 0 1000 -200 0 -200 0 0 -1000z"
       id="path87"
       style="fill:#000000" />
  </g>
</svg>
