<?xml version="1.0" encoding="UTF-8" standalone="no"?>
<svg
   xmlns:dc="http://purl.org/dc/elements/1.1/"
   xmlns:cc="http://creativecommons.org/ns#"
   xmlns:rdf="http://www.w3.org/1999/02/22-rdf-syntax-ns#"
   xmlns:svg="http://www.w3.org/2000/svg"
   xmlns="http://www.w3.org/2000/svg"
   xmlns:sodipodi="http://sodipodi.sourceforge.net/DTD/sodipodi-0.dtd"
   xmlns:inkscape="http://www.inkscape.org/namespaces/inkscape"
   version="1.0"
   width="512.000000pt"
   height="512.000000pt"
   viewBox="0 0 512.000000 512.000000"
   preserveAspectRatio="xMidYMid meet"
   id="svg73"
   sodipodi:docname="documentosBlanco.svg"
   inkscape:version="0.92.5 (2060ec1f9f, 2020-04-08)">
  <metadata
     id="metadata79">
    <rdf:RDF>
      <cc:Work
         rdf:about="">
        <dc:format>image/svg+xml</dc:format>
        <dc:type
           rdf:resource="http://purl.org/dc/dcmitype/StillImage" />
        <dc:title></dc:title>
      </cc:Work>
    </rdf:RDF>
  </metadata>
  <defs
     id="defs77" />
  <sodipodi:namedview
     pagecolor="#ffffff"
     bordercolor="#666666"
     borderopacity="1"
     objecttolerance="10"
     gridtolerance="10"
     guidetolerance="10"
     inkscape:pageopacity="0"
     inkscape:pageshadow="2"
     inkscape:window-width="1856"
     inkscape:window-height="1016"
     id="namedview75"
     showgrid="false"
     inkscape:zoom="1.2539063"
     inkscape:cx="370.44237"
     inkscape:cy="373.23364"
     inkscape:window-x="64"
     inkscape:window-y="27"
     inkscape:window-maximized="1"
     inkscape:current-layer="svg73" />
  <g
     transform="translate(0.000000,512.000000) scale(0.100000,-0.100000)"
     fill="#000000"
     stroke="none"
     id="g71">
    <path
       d="M1380 5107 c-49 -16 -133 -102 -148 -153 -7 -23 -12 -96 -12 -163 l0 -121 -121 0 c-67 0 -140 -5 -163 -12 -55 -16 -138 -99 -154 -154 -8 -29 -12 -139 -12 -362 l0 -320 -44 -6 c-61 -9 -172 -65 -228 -115 -64 -57 -124 -150 -151 -235 l-22 -71 0 -1620 0 -1620 25 -45 c14 -24 45 -58 68 -75 l44 -30 2098 0 2098 0 44 30 c23 17 54 51 68 75 l25 45 3 700 c1 385 0 710 -3 723 -15 59 -83 81 -123 39 l-22 -23 -2 -708 c-3 -687 -4 -708 -22 -722 -30 -21 -4102 -21 -4132 0 -19 14 -19 41 -19 1508 l0 1493 2085 0 2085 0 3 -642 2 -642 26 -20 c15 -12 36 -21 48 -21 31 0 64 34 71 72 3 18 5 359 3 758 -3 668 -5 729 -22 780 -32 97 -76 168 -146 234 -73 68 -144 108 -227 128 l-53 13 0 310 0 310 -338 337 -337 338 -1130 -1 c-793 -1 -1140 -4 -1165 -12z m2192 -364 l3 -228 28 -47 c15 -26 43 -59 62 -74 61 -46 110 -54 332 -54 l203 0 0 -510 0 -510 -150 0 -150 0 0 337 0 338 -338 337 -337 338 -928 0 -927 0 0 121 c0 120 0 121 29 150 l29 29 1070 0 1070 0 4 -227z m376 -251 c-223 -4 -228 1 -228 225 l0 148 185 -185 185 -185 -142 -3z m-826 -199 l3 -228 28 -47 c15 -26 43 -59 62 -74 63 -48 94 -53 323 -54 l212 0 0 -285 0 -285 -1415 0 -1415 0 0 571 0 571 29 29 29 29 1070 0 1070 0 4 -227z m376 -251 c-223 -4 -228 1 -228 225 l0 148 185 -185 185 -185 -142 -3z m-2728 -547 l0 -175 -149 0 -149 0 5 43 c2 23 20 74 39 114 38 80 87 128 169 168 89 43 85 50 85 -150z m3667 145 c107 -54 184 -157 202 -270 l8 -50 -148 0 -149 0 0 175 c0 140 3 175 13 175 8 0 41 -14 74 -30z"
       id="path55"
       style="fill:#ffffff" />
    <path
       d="M1212 3877 c-29 -31 -29 -77 1 -105 l23 -22 891 0 c886 0 890 0 917 21 36 28 36 80 0 108 -27 21 -31 21 -919 21 l-892 0 -21 -23z"
       id="path57"
       style="fill:#ffffff" />
    <path
       d="M1210 3600 c-27 -27 -26 -81 1 -106 20 -18 55 -19 1068 -22 734 -2 1054 1 1072 9 25 10 49 46 49 73 0 7 -9 25 -21 40 l-20 26 -1065 0 c-1051 0 -1064 0 -1084 -20z"
       id="path59"
       style="fill:#ffffff" />
    <path
       d="M2560 1967 c-19 -12 -43 -38 -54 -57 -21 -34 -21 -50 -24 -663 -2 -407 1 -648 8 -684 11 -63 44 -106 97 -129 27 -12 179 -14 855 -14 799 0 823 1 862 20 23 11 52 36 66 57 l25 37 3 660 2 661 -22 45 c-13 25 -38 55 -57 67 -34 23 -37 23 -387 23 l-353 0 -20 -26 c-12 -15 -21 -33 -21 -40 0 -29 25 -64 53 -74 18 -6 150 -10 344 -10 l313 0 -2 -632 -3 -633 -802 -3 -803 -2 0 635 0 635 309 0 c317 0 362 5 381 40 16 30 12 68 -10 90 -19 19 -33 20 -374 20 -350 0 -353 0 -386 -23z"
       id="path61"
       style="fill:#ffffff" />
    <path
       d="M2866 1679 c-33 -26 -36 -79 -6 -109 20 -20 33 -20 579 -20 518 0 560 1 580 18 33 26 31 79 -3 109 l-27 23 -548 0 c-540 0 -549 0 -575 -21z"
       id="path63"
       style="fill:#ffffff" />
    <path
       d="M2860 1400 c-30 -30 -27 -83 6 -109 26 -21 35 -21 575 -21 l548 0 25 23 c36 32 39 74 6 107 -20 20 -33 20 -580 20 -547 0 -560 0 -580 -20z"
       id="path65"
       style="fill:#ffffff" />
    <path
       d="M2895 1143 c-36 -9 -55 -34 -55 -73 0 -74 -31 -70 602 -70 553 0 565 0 583 20 25 28 23 76 -4 103 l-22 22 -542 2 c-298 0 -551 -1 -562 -4z"
       id="path67"
       style="fill:#ffffff" />
    <path
       d="M2866 849 c-33 -26 -36 -79 -6 -109 20 -20 33 -20 574 -20 305 0 562 3 571 6 10 4 23 21 30 37 16 39 3 80 -31 96 -18 8 -183 11 -568 11 -535 0 -544 0 -570 -21z"
       id="path69"
       style="fill:#ffffff" />
  </g>
</svg>
