<?xml version="1.0" encoding="UTF-8"?>
<svg xmlns="http://www.w3.org/2000/svg" 
     viewBox="0 0 468 514.8"
     width="468" 
     height="514.8">
  
  <style type="text/css">
    <![CDATA[
    svg {
      --stroke-width: 220; /* Variable para controlar el grosor del trazo */
      --stroke-color: #000000;
      --fill-color: #000000;
    }
    ]]>
  </style>

  <g transform="matrix(0.0996,0,0,-0.0991,-31.6054,499.1207)"
     style="fill: var(--fill-color);
            stroke: var(--stroke-color);
            stroke-width: var(--stroke-width);
            stroke-linecap: round;
            stroke-linejoin: round;">
    
    <path d="M2082.3 4877c-878-331-1497-1116-1626-2064-32-233-17-580 36-833 160-767 663-1415 1365-1758 181-89 298-133 478-180 778-205 1612-26 2247 481 47 38 142 126 212 197 103 104 128 134 128 157 0 41-23 44-118 16-371-111-816-128-1212-45-254 52-523 159-758 300-932 561-1385 1678-1108 2733 85 321 261 672 462 917 56 68 63 86 42 107-18 18-33 15-148-28zm-12-97c-2-5-37-60-80-123-280-421-421-888-422-1395 0-198 12-320 45-490 218-1102 1112-1921 2231-2044 235-26 574-7 802 44 60 14 111 23 113 21 4-4-147-141-237-216-147-121-403-272-600-353-584-240-1256-247-1834-20-452 177-856 494-1127 883-207 296-352 656-413 1020-116 697 85 1423 547 1978 94 114 286 294 407 384 139 103 238 163 390 238 166 81 186 90 178 73z"/>
  </g>
</svg>