<?xml version="1.0" encoding="UTF-8" standalone="no"?>
<svg
   xmlns:dc="http://purl.org/dc/elements/1.1/"
   xmlns:cc="http://creativecommons.org/ns#"
   xmlns:rdf="http://www.w3.org/1999/02/22-rdf-syntax-ns#"
   xmlns:svg="http://www.w3.org/2000/svg"
   xmlns="http://www.w3.org/2000/svg"
   xmlns:sodipodi="http://sodipodi.sourceforge.net/DTD/sodipodi-0.dtd"
   xmlns:inkscape="http://www.inkscape.org/namespaces/inkscape"
   version="1.0"
   width="216.37077pt"
   height="215.95338pt"
   viewBox="0 0 216.37079 215.95337"
   preserveAspectRatio="xMidYMid meet"
   id="svg216"
   sodipodi:docname="modoOscuro.svg"
   inkscape:version="0.92.5 (2060ec1f9f, 2020-04-08)">
  <metadata
     id="metadata222">
    <rdf:RDF>
      <cc:Work
         rdf:about="">
        <dc:format>image/svg+xml</dc:format>
        <dc:type
           rdf:resource="http://purl.org/dc/dcmitype/StillImage" />
      </cc:Work>
    </rdf:RDF>
  </metadata>
  <defs
     id="defs220" />
  <sodipodi:namedview
     pagecolor="#ffffff"
     bordercolor="#666666"
     borderopacity="1"
     objecttolerance="10"
     gridtolerance="10"
     guidetolerance="10"
     inkscape:pageopacity="0"
     inkscape:pageshadow="2"
     inkscape:window-width="1856"
     inkscape:window-height="1016"
     id="namedview218"
     showgrid="false"
     inkscape:zoom="0.38770867"
     inkscape:cx="-470.14031"
     inkscape:cy="100.98039"
     inkscape:window-x="1984"
     inkscape:window-y="27"
     inkscape:window-maximized="1"
     inkscape:current-layer="g214" />
  <g
     transform="matrix(0.09808108,0,0,-0.09903866,-276.88026,326.6107)"
     id="g214"
     style="fill:#000000;stroke:#000000;stroke-width:60.87742233;stroke-linecap:round;stroke-linejoin:round">
    <g
       style="fill:#000000;stroke:#000000;stroke-width:60.87742233"
       transform="matrix(0.41946688,0,0,0.41739162,2850.3432,1145.917)"
       id="g3820">
      <path
         inkscape:connector-curvature="0"
         d="m 2385,5114 c -16,-2 -73,-9 -125,-15 -640,-73 -1257,-413 -1678,-927 -74.09876,-110.4569 -239.6251,-324.9714 -77.36565,-216.6131 -43.23338,-322.5358 70.94254,-95.2755 151,33 C 778.63435,4125.3869 950,4306 1040,4382 c 253,213 583,386 904,473 96,26 256,58 261,53 2,-2 -35,-39 -83,-82 -365,-333 -587,-764 -642,-1248 -16,-135 -8,-440 15,-563 78,-430 280,-807 592,-1105 265,-253 599,-429 960,-506 62,-13 150,-27 197,-30 81,-7 74.7219,15.6352 110,19 553.6406,52.8064 321.014,92.2831 75.9978,119.5376 C 3594.7675,1536.7312 3320,1542 3228,1555 c -676,93 -1237,539 -1468,1166 -121,326 -145,690 -70,1029 106,474 424,914 834,1152 102,60 126,84 126,129 0,29 -7,43 -31,63 -28,24 -37,26 -117,25 -48,-1 -100,-4 -117,-5 z"
         id="path3816"
         style="fill:#000000;stroke:#000000;stroke-width:60.87742233"
         sodipodi:nodetypes="cccccccsccccccscccccsccc" />
      <path
         inkscape:connector-curvature="0"
         d="m 375,3866 c -9.20445,-15.8896 -49,-74 -80,-136 C 89,3319 0,2929 13,2490 25,2087 111,1752 295,1390 673,649 1374,153 2227,23 2365,2 2744,0 2880,19 c 845,117 1552,603 1945,1335 100,187 179,396 231,613 27,111 54,262 54,305 0,39 -45,88 -82,88 -45,0 -62,-13 -125,-97 -79,-105 -180,-211 -288,-301 -280,-234 -633.9356,-381.3405 -1010.039,-415.9319 -62,-7 -777.8835,-69.2721 -827.4431,-61.0806 -17.6627,2.9194 631.2993,-90.9861 514.3214,-102.328 C 3108.5713,1364.8902 3565,1367 3653,1373 c 380,23 856,236 1145,511 40,38 62,53 62,43 0,-9 -16,-65 -36,-124 C 4535,950 3811,345 2910,204 2749,178 2391,178 2230,204 1550,310 967,678 595,1235 c -187,280 -311,587 -372,924 -24,132 -27,170 -27,391 -1,191 3,271 17,360 40,248 110,465 228,708 45,93 149.52841,282.0218 149.52841,299.0218 0,70 44.85282,398.4741 -215.52841,-51.0218 z"
         id="path3818"
         style="fill:#000000;stroke:#000000;stroke-width:60.87742233"
         sodipodi:nodetypes="scccccccsscccssccsccccccccss" />
    </g>
  </g>
</svg>
