<?xml version="1.0" standalone="no"?>
<!DOCTYPE svg PUBLIC "-//W3C//DTD SVG 20010904//EN"
 "http://www.w3.org/TR/2001/REC-SVG-20010904/DTD/svg10.dtd">
<svg version="1.0" xmlns="http://www.w3.org/2000/svg"
 width="512.000000pt" height="512.000000pt" viewBox="0 0 512.000000 512.000000"
 preserveAspectRatio="xMidYMid meet">

<g transform="translate(0.000000,512.000000) scale(0.100000,-0.100000)"
fill="#000000" stroke="none">
<path d="M1560 4740 l0 -380 -600 0 -600 0 0 -200 0 -200 200 0 200 0 0 -1713
c0 -1674 0 -1716 20 -1791 29 -113 73 -190 160 -276 86 -87 163 -131 276 -160
75 -19 115 -20 1344 -20 1229 0 1269 1 1344 20 113 29 190 73 276 160 87 86
131 163 160 276 20 75 20 117 20 1791 l0 1713 200 0 200 0 0 200 0 200 -600 0
-600 0 0 380 0 380 -1000 0 -1000 0 0 -380z m1600 -200 l0 -180 -600 0 -600 0
0 180 0 180 600 0 600 0 0 -180z m798 -2292 l-3 -1713 -24 -38 c-13 -21 -42
-50 -64 -65 l-41 -27 -1266 0 -1266 0 -41 27 c-22 15 -51 44 -64 65 l-24 38
-3 1713 -2 1712 1400 0 1400 0 -2 -1712z"/>
<path d="M1560 2160 l0 -1000 200 0 200 0 0 1000 0 1000 -200 0 -200 0 0
-1000z"/>
<path d="M2360 2160 l0 -1000 200 0 200 0 0 1000 0 1000 -200 0 -200 0 0
-1000z"/>
<path d="M3160 2160 l0 -1000 200 0 200 0 0 1000 0 1000 -200 0 -200 0 0
-1000z"/>
</g>
</svg>
