<?xml version="1.0" encoding="UTF-8" standalone="no"?>
<svg
   xmlns:dc="http://purl.org/dc/elements/1.1/"
   xmlns:cc="http://creativecommons.org/ns#"
   xmlns:rdf="http://www.w3.org/1999/02/22-rdf-syntax-ns#"
   xmlns:svg="http://www.w3.org/2000/svg"
   xmlns="http://www.w3.org/2000/svg"
   xmlns:sodipodi="http://sodipodi.sourceforge.net/DTD/sodipodi-0.dtd"
   xmlns:inkscape="http://www.inkscape.org/namespaces/inkscape"
   version="1.0"
   width="512.000000pt"
   height="512.000000pt"
   viewBox="0 0 512.000000 512.000000"
   preserveAspectRatio="xMidYMid meet"
   id="svg45"
   sodipodi:docname="flechaBlanco.svg"
   inkscape:version="0.92.5 (2060ec1f9f, 2020-04-08)">
  <metadata
     id="metadata51">
    <rdf:RDF>
      <cc:Work
         rdf:about="">
        <dc:format>image/svg+xml</dc:format>
        <dc:type
           rdf:resource="http://purl.org/dc/dcmitype/StillImage" />
        <dc:title></dc:title>
      </cc:Work>
    </rdf:RDF>
  </metadata>
  <defs
     id="defs49" />
  <sodipodi:namedview
     pagecolor="#ffffff"
     bordercolor="#666666"
     borderopacity="1"
     objecttolerance="10"
     gridtolerance="10"
     guidetolerance="10"
     inkscape:pageopacity="0"
     inkscape:pageshadow="2"
     inkscape:window-width="1856"
     inkscape:window-height="1016"
     id="namedview47"
     showgrid="false"
     inkscape:zoom="0.64627702"
     inkscape:cx="463.06309"
     inkscape:cy="453.66538"
     inkscape:window-x="1984"
     inkscape:window-y="27"
     inkscape:window-maximized="1"
     inkscape:current-layer="svg45" />
  <g
     transform="matrix(-0.09999542,-9.5693244e-4,-9.5693244e-4,0.09999542,514.10374,2.366785)"
     id="g43"
     style="fill:#ffffff;stroke:none">
    <path
       d="m 3795,3781 c -47,-22 -89,-64 -104,-104 -15,-40 -14,-122 3,-160 8,-18 174,-192 375,-392 l 361,-360 -2147,-5 -2148,-5 -38,-24 C 76,2718 47,2689 32,2667 9,2633 5,2615 5,2560 c 0,-55 4,-73 27,-107 15,-22 44,-51 65,-64 l 38,-24 2148,-5 2147,-5 -361,-360 c -201,-200 -367,-374 -375,-392 -17,-38 -18,-120 -3,-160 36,-97 167,-149 261,-105 43,20 1104,1062 1140,1120 34,55 33,154 -3,208 -42,63 -1094,1096 -1137,1116 -48,23 -107,22 -157,-1 z"
       id="path41"
       inkscape:connector-curvature="0"
       style="fill:#ffffff" />
  </g>
</svg>
