<?xml version="1.0" encoding="UTF-8" standalone="no"?>
<svg
   xmlns:dc="http://purl.org/dc/elements/1.1/"
   xmlns:cc="http://creativecommons.org/ns#"
   xmlns:rdf="http://www.w3.org/1999/02/22-rdf-syntax-ns#"
   xmlns:svg="http://www.w3.org/2000/svg"
   xmlns="http://www.w3.org/2000/svg"
   xmlns:sodipodi="http://sodipodi.sourceforge.net/DTD/sodipodi-0.dtd"
   xmlns:inkscape="http://www.inkscape.org/namespaces/inkscape"
   version="1.0"
   width="511.68549pt"
   height="533.48358pt"
   viewBox="0 0 511.68549 533.48358"
   preserveAspectRatio="xMidYMid meet"
   id="svg68"
   sodipodi:docname="inicioBlanco.svg"
   inkscape:version="0.92.5 (2060ec1f9f, 2020-04-08)">
  <metadata
     id="metadata74">
    <rdf:RDF>
      <cc:Work
         rdf:about="">
        <dc:format>image/svg+xml</dc:format>
        <dc:type
           rdf:resource="http://purl.org/dc/dcmitype/StillImage" />
        <dc:title />
      </cc:Work>
    </rdf:RDF>
  </metadata>
  <defs
     id="defs72" />
  <sodipodi:namedview
     pagecolor="#ffffff"
     bordercolor="#666666"
     borderopacity="1"
     objecttolerance="10"
     gridtolerance="10"
     guidetolerance="10"
     inkscape:pageopacity="0"
     inkscape:pageshadow="2"
     inkscape:window-width="1920"
     inkscape:window-height="1043"
     id="namedview70"
     showgrid="false"
     inkscape:zoom="1.0328801"
     inkscape:cx="261.33216"
     inkscape:cy="392.80305"
     inkscape:window-x="0"
     inkscape:window-y="0"
     inkscape:window-maximized="1"
     inkscape:current-layer="svg68" />
  <g
     transform="matrix(0.1,0,0,-0.1,-0.14544469,511.81274)"
     id="g66"
     style="fill:#000000;stroke:none">
    <path
       d="m 2435,5103 c -38,-8 -97,-27 -130,-43 C 2216,5017 64,3470 33,3427 c -50,-71 -40,-167 26,-240 42,-47 84,-67 141,-67 59,0 93,17 231,117 472,341 2005,1437 2032,1453 53,31 116,36 168,13 24,-11 526,-366 1114,-788 589,-422 1084,-774 1102,-781 38,-16 101,-18 137,-4 43,16 104,79 122,126 21,56 15,122 -17,169 -16,24 -305,237 -884,652 -473,339 -963,691 -1090,782 -256,184 -324,223 -437,245 -94,19 -151,19 -243,-1 z"
       id="path62"
       style="fill:#ffffff"
       inkscape:connector-curvature="0" />
    <path
       d="m 2451.9995,4109.0001 c -128,-22 -165,-46 -1007,-654 -445.00005,-322 -835.00005,-609 -865.00005,-638 -67,-66 -123,-158 -153,-252 l -22,-70 v -1000 -999.99995 l 28,-80 c 55,-157 157,-274 302,-345.999996 140,-69.00000033731 148,-70.00000034 853.00005,-67.0000003 588,3 629,4 661,21.0000003 40,22 79,62 95,96.999996 7,17 13,173 16,487 l 5,461.00005 30,43 c 83,116.9999 247,116.9999 330,0 l 30,-43 5,-461.00005 c 3,-314 9,-470 16,-487 16,-34.999996 55,-74.999996 95,-96.999996 32,-17.0000003 71,-18.0000003 689,-18.0000003 654,0 655,0 727,23.0000003 192,60 334,197.999996 400,386.999996 l 28,80 v 999.99995 1000 l -22,70 c -28,89 -84,184 -146,246 -26,26 -289,223 -585,436 -295,213 -661,477 -812,586 -287,208 -329,234 -420,261 -68,20 -207,28 -278,15 z m 183,-408 c 22,-10 397,-276 833,-591 605,-436 800,-582 820,-613 l 27,-41 3,-940 c 3,-1051.99995 7,-991.99995 -68,-1059.99995 -21,-19 -56,-39 -77,-45 -24,-7 -213,-11 -525,-11 h -488 v 328 c 0,370.00005 -6,419.00005 -66,541.99995 -46,93 -159,210 -251,258 -80,42 -198,72 -283,72 -85,0 -203,-30 -283,-72 -92,-48 -205,-165 -251,-258 -60,-122.9999 -66,-171.9999 -66,-541.99995 v -328 h -487 c -313,0 -502.00005,4 -526.00005,11 -21,6 -56,26 -77,45 -75,68 -71,8 -68,1059.99995 l 3,940 26,40 c 21,31 219.00005,179 815.00005,610 434,313 809,579 833,592 53,27 102,28 156,3 z"
       id="path64"
       style="fill:#ffffff"
       inkscape:connector-curvature="0" />
  </g>
</svg>
