<?xml version="1.0" encoding="UTF-8" standalone="no"?>
<svg
   xmlns:dc="http://purl.org/dc/elements/1.1/"
   xmlns:cc="http://creativecommons.org/ns#"
   xmlns:rdf="http://www.w3.org/1999/02/22-rdf-syntax-ns#"
   xmlns:svg="http://www.w3.org/2000/svg"
   xmlns="http://www.w3.org/2000/svg"
   xmlns:sodipodi="http://sodipodi.sourceforge.net/DTD/sodipodi-0.dtd"
   xmlns:inkscape="http://www.inkscape.org/namespaces/inkscape"
   version="1.0"
   width="512.000000pt"
   height="512.000000pt"
   viewBox="0 0 512.000000 512.000000"
   preserveAspectRatio="xMidYMid meet"
   id="svg68"
   sodipodi:docname="inicio.svg"
   inkscape:version="0.92.5 (2060ec1f9f, 2020-04-08)">
  <metadata
     id="metadata74">
    <rdf:RDF>
      <cc:Work
         rdf:about="">
        <dc:format>image/svg+xml</dc:format>
        <dc:type
           rdf:resource="http://purl.org/dc/dcmitype/StillImage" />
      </cc:Work>
    </rdf:RDF>
  </metadata>
  <defs
     id="defs72" />
  <sodipodi:namedview
     pagecolor="#ffffff"
     bordercolor="#666666"
     borderopacity="1"
     objecttolerance="10"
     gridtolerance="10"
     guidetolerance="10"
     inkscape:pageopacity="0"
     inkscape:pageshadow="2"
     inkscape:window-width="1920"
     inkscape:window-height="1043"
     id="namedview70"
     showgrid="false"
     inkscape:zoom="1.1951065"
     inkscape:cx="371.87454"
     inkscape:cy="341.33333"
     inkscape:window-x="0"
     inkscape:window-y="0"
     inkscape:window-maximized="1"
     inkscape:current-layer="svg68" />
  <g
     transform="translate(0.000000,512.000000) scale(0.100000,-0.100000)"
     fill="#000000"
     stroke="none"
     id="g66">
    <path
       d="M2435 5103 c-38 -8 -97 -27 -130 -43 -89 -43 -2241 -1590 -2272 -1633 -50 -71 -40 -167 26 -240 42 -47 84 -67 141 -67 59 0 93 17 231 117 472 341 2005 1437 2032 1453 53 31 116 36 168 13 24 -11 526 -366 1114 -788 589 -422 1084 -774 1102 -781 38 -16 101 -18 137 -4 43 16 104 79 122 126 21 56 15 122 -17 169 -16 24 -305 237 -884 652 -473 339 -963 691 -1090 782 -256 184 -324 223 -437 245 -94 19 -151 19 -243 -1z"
       id="path62"
       style="fill:#000000" />
    <path
       d="M2452 4109 c-128 -22 -165 -46 -1007 -654 -445 -322 -835 -609 -865 -638 -67 -66 -123 -158 -153 -252 l-22 -70 0 -1000 0 -1000 28 -80 c55 -157 157 -274 302 -346 140 -69 148 -70 853 -67 588 3 629 4 661 21 40 22 79 62 95 97 7 17 13 173 16 487 l5 461 30 43 c83 117 247 117 330 0 l30 -43 5 -461 c3 -314 9 -470 16 -487 16 -35 55 -75 95 -97 32 -17 71 -18 689 -18 654 0 655 0 727 23 192 60 334 198 400 387 l28 80 0 1000 0 1000 -22 70 c-28 89 -84 184 -146 246 -26 26 -289 223 -585 436 -295 213 -661 477 -812 586 -287 208 -329 234 -420 261 -68 20 -207 28 -278 15z m183 -408 c22 -10 397 -276 833 -591 605 -436 800 -582 820 -613 l27 -41 3 -940 c3 -1052 7 -992 -68 -1060 -21 -19 -56 -39 -77 -45 -24 -7 -213 -11 -525 -11 l-488 0 0 328 c0 370 -6 419 -66 542 -46 93 -159 210 -251 258 -80 42 -198 72 -283 72 -85 0 -203 -30 -283 -72 -92 -48 -205 -165 -251 -258 -60 -123 -66 -172 -66 -542 l0 -328 -487 0 c-313 0 -502 4 -526 11 -21 6 -56 26 -77 45 -75 68 -71 8 -68 1060 l3 940 26 40 c21 31 219 179 815 610 434 313 809 579 833 592 53 27 102 28 156 3z"
       id="path64"
       style="fill:#000000" />
  </g>
</svg>
