<?xml version="1.0" encoding="UTF-8" standalone="no"?>
<svg
   xmlns:dc="http://purl.org/dc/elements/1.1/"
   xmlns:cc="http://creativecommons.org/ns#"
   xmlns:rdf="http://www.w3.org/1999/02/22-rdf-syntax-ns#"
   xmlns:svg="http://www.w3.org/2000/svg"
   xmlns="http://www.w3.org/2000/svg"
   xmlns:sodipodi="http://sodipodi.sourceforge.net/DTD/sodipodi-0.dtd"
   xmlns:inkscape="http://www.inkscape.org/namespaces/inkscape"
   version="1.0"
   width="216.37077pt"
   height="215.95338pt"
   viewBox="0 0 216.37079 215.95337"
   preserveAspectRatio="xMidYMid meet"
   id="svg216"
   sodipodi:docname="modoOscuro.svg"
   inkscape:version="0.92.5 (2060ec1f9f, 2020-04-08)">
  <metadata
     id="metadata222">
    <rdf:RDF>
      <cc:Work
         rdf:about="">
        <dc:format>image/svg+xml</dc:format>
        <dc:type
           rdf:resource="http://purl.org/dc/dcmitype/StillImage" />
      </cc:Work>
    </rdf:RDF>
  </metadata>
  <defs
     id="defs220" />
  <sodipodi:namedview
     pagecolor="#ffffff"
     bordercolor="#666666"
     borderopacity="1"
     objecttolerance="10"
     gridtolerance="10"
     guidetolerance="10"
     inkscape:pageopacity="0"
     inkscape:pageshadow="2"
     inkscape:window-width="1856"
     inkscape:window-height="1016"
     id="namedview218"
     showgrid="false"
     inkscape:zoom="2.1932114"
     inkscape:cx="223.26895"
     inkscape:cy="163.44822"
     inkscape:window-x="1984"
     inkscape:window-y="27"
     inkscape:window-maximized="1"
     inkscape:current-layer="svg216" />
  <g
     transform="matrix(0.09808108,0,0,-0.09903866,-277.56419,331.05624)"
     id="g214"
     style="fill:#000000;stroke:#000000;stroke-width:60.87742233;stroke-linecap:round;stroke-linejoin:round">
    <g
       style="fill:#000000;stroke:#000000;stroke-width:60.87742233"
       transform="matrix(0.41946688,0,0,0.41739162,2855.2739,1189.8644)"
       id="g3820">
      <path
         inkscape:connector-curvature="0"
         d="m 2385,5114 c -16,-2 -73,-9 -125,-15 -640,-73 -1257,-413 -1678,-927 -62,-76 -67,-108 -23,-153 49,-49 85,-41 151,33 123,137 240,254 330,330 253,213 583,386 904,473 96,26 256,58 261,53 2,-2 -35,-39 -83,-82 -365,-333 -587,-764 -642,-1248 -16,-135 -8,-440 15,-563 78,-430 280,-807 592,-1105 265,-253 599,-429 960,-506 62,-13 150,-27 197,-30 81,-7 85,-6 110,19 34,34 35,86 4,121 -20,22 -38,28 -130,41 -676,93 -1237,539 -1468,1166 -121,326 -145,690 -70,1029 106,474 424,914 834,1152 102,60 126,84 126,129 0,29 -7,43 -31,63 -28,24 -37,26 -117,25 -48,-1 -100,-4 -117,-5 z"
         id="path3816"
         style="fill:#000000;stroke:#000000;stroke-width:60.87742233" />
      <path
         inkscape:connector-curvature="0"
         d="M 375,3866 C 362,3853 326,3792 295,3730 89,3319 0,2929 13,2490 25,2087 111,1752 295,1390 673,649 1374,153 2227,23 2365,2 2744,0 2880,19 c 845,117 1552,603 1945,1335 100,187 179,396 231,613 27,111 54,262 54,305 0,39 -45,88 -82,88 -45,0 -62,-13 -125,-97 -79,-105 -180,-211 -288,-301 -280,-234 -609,-371 -1009,-418 -62,-7 -96,-39 -96,-89 0,-25 8,-44 26,-62 25,-25 29,-26 117,-20 380,23 856,236 1145,511 40,38 62,53 62,43 0,-9 -16,-65 -36,-124 C 4535,950 3811,345 2910,204 2749,178 2391,178 2230,204 1550,310 967,678 595,1235 c -187,280 -311,587 -372,924 -24,132 -27,170 -27,391 -1,191 3,271 17,360 40,248 110,465 228,708 45,93 79,176 79,193 0,70 -94,106 -145,55 z"
         id="path3818"
         style="fill:#000000;stroke:#000000;stroke-width:60.87742233" />
    </g>
  </g>
</svg>
