<?xml version="1.0" encoding="UTF-8" standalone="no"?>
<svg
   xmlns:dc="http://purl.org/dc/elements/1.1/"
   xmlns:cc="http://creativecommons.org/ns#"
   xmlns:rdf="http://www.w3.org/1999/02/22-rdf-syntax-ns#"
   xmlns:svg="http://www.w3.org/2000/svg"
   xmlns="http://www.w3.org/2000/svg"
   xmlns:sodipodi="http://sodipodi.sourceforge.net/DTD/sodipodi-0.dtd"
   xmlns:inkscape="http://www.inkscape.org/namespaces/inkscape"
   version="1.0"
   width="255pt"
   height="255.46709pt"
   viewBox="0 0 255 255.46709"
   preserveAspectRatio="xMidYMid meet"
   id="svg410"
   sodipodi:docname="modoOscuro.svg"
   inkscape:version="0.92.5 (2060ec1f9f, 2020-04-08)">
  <metadata
     id="metadata416">
    <rdf:RDF>
      <cc:Work
         rdf:about="">
        <dc:format>image/svg+xml</dc:format>
        <dc:type
           rdf:resource="http://purl.org/dc/dcmitype/StillImage" />
      </cc:Work>
    </rdf:RDF>
  </metadata>
  <defs
     id="defs414" />
  <sodipodi:namedview
     pagecolor="#ffffff"
     bordercolor="#666666"
     borderopacity="1"
     objecttolerance="10"
     gridtolerance="10"
     guidetolerance="10"
     inkscape:pageopacity="0"
     inkscape:pageshadow="2"
     inkscape:window-width="1920"
     inkscape:window-height="1043"
     id="namedview412"
     showgrid="false"
     inkscape:zoom="1.1951065"
     inkscape:cx="338.54121"
     inkscape:cy="169.95611"
     inkscape:window-x="0"
     inkscape:window-y="0"
     inkscape:window-maximized="1"
     inkscape:current-layer="svg410" />
  <g
     transform="matrix(0.1,0,0,-0.1,-25,384)"
     id="g408"
     style="fill:#000000;stroke-width:10">
    <path
       d="m 1490,3827 c -44,-22 -50,-49 -50,-235 v -174 l 29,-29 c 36,-36 73,-37 106,-4 25,24 25,26 25,209 0,101 -3,192 -6,201 -6,15 -54,45 -71,45 -4,0 -19,-6 -33,-13 z"
       id="path388"
       inkscape:connector-curvature="0"
       style="fill:#ffffff" />
    <path
       d="m 658,3495 c -30,-17 -44,-52 -34,-89 3,-13 63,-83 132,-155 110,-114 130,-131 158,-131 17,0 39,6 48,14 25,18 39,62 29,89 -14,36 -253,276 -281,282 -14,2 -37,-2 -52,-10 z"
       id="path392"
       inkscape:connector-curvature="0"
       style="fill:#ffffff" />
    <path
       d="m 2313,3497 c -12,-6 -76,-70 -142,-140 -99,-105 -121,-133 -121,-158 0,-57 68,-97 118,-70 38,20 252,260 258,289 11,55 -63,108 -113,79 z"
       id="path394"
       inkscape:connector-curvature="0"
       style="fill:#ffffff" />
    <path
       d="m 1354,3325 c -264,-57 -485,-258 -575,-522 -31,-93 -33,-105 -33,-243 0,-138 2,-150 33,-243 82,-239 260,-417 499,-500 115,-40 287,-49 408,-22 300,67 528,291 600,591 22,91 22,257 0,348 -72,298 -299,523 -596,591 -80,18 -253,18 -336,0 z m 376,-178 c 152,-54 278,-167 349,-312 49,-100 65,-167 65,-275 0,-142 -40,-259 -127,-377 -115,-154 -295,-243 -494,-243 -175,0 -311,57 -438,185 -123,123 -185,267 -185,435 0,277 197,531 470,605 90,24 267,15 360,-18 z"
       id="path396"
       inkscape:connector-curvature="0"
       style="fill:#ffffff" />
    <path
       d="m 276,2619 c -20,-16 -26,-29 -26,-59 0,-30 6,-43 26,-59 25,-20 40,-21 211,-21 182,0 184,0 208,25 16,15 25,36 25,55 0,19 -9,40 -25,55 -24,25 -26,25 -208,25 -171,0 -186,-1 -211,-21 z"
       id="path398"
       inkscape:connector-curvature="0"
       style="fill:#ffffff" />
    <path
       d="m 2354,2617 c -20,-17 -27,-33 -27,-57 0,-24 7,-40 27,-57 26,-22 33,-23 212,-23 183,0 185,0 209,25 16,15 25,36 25,55 0,19 -9,40 -25,55 -24,25 -26,25 -209,25 -179,0 -186,-1 -212,-23 z"
       id="path400"
       inkscape:connector-curvature="0"
       style="fill:#ffffff" />
    <path
       d="M 756,1869 C 630,1738 612,1711 624,1665 c 8,-31 57,-58 91,-49 28,7 262,246 276,282 10,26 -4,69 -29,88 -9,8 -31,14 -48,14 -28,0 -48,-17 -158,-131 z"
       id="path402"
       inkscape:connector-curvature="0"
       style="fill:#ffffff" />
    <path
       d="m 2075,1975 c -48,-47 -38,-71 96,-212 66,-70 132,-134 147,-141 54,-26 121,27 107,85 -3,17 -56,80 -133,161 -113,117 -131,132 -160,132 -22,0 -41,-8 -57,-25 z"
       id="path404"
       inkscape:connector-curvature="0"
       style="fill:#ffffff" />
    <path
       d="m 1469,1731 -29,-29 v -174 c 0,-189 6,-214 54,-236 32,-16 80,-2 96,29 6,10 10,101 10,204 0,184 0,186 -25,210 -33,33 -70,32 -106,-4 z"
       id="path406"
       inkscape:connector-curvature="0"
       style="fill:#ffffff" />
  </g>
</svg>
