<?xml version="1.0" standalone="no"?>
<!DOCTYPE svg PUBLIC "-//W3C//DTD SVG 20010904//EN"
 "http://www.w3.org/TR/2001/REC-SVG-20010904/DTD/svg10.dtd">
<svg version="1.0" xmlns="http://www.w3.org/2000/svg"
 width="512.000000pt" height="512.000000pt" viewBox="0 0 512.000000 512.000000"
 preserveAspectRatio="xMidYMid meet">

<g transform="translate(0.000000,512.000000) scale(0.100000,-0.100000)"
fill="#000000" stroke="none">
<path d="M1318 5071 c-194 -62 -328 -246 -328 -452 l0 -66 -87 -6 c-49 -3
-122 -16 -163 -27 -89 -25 -247 -99 -274 -129 -40 -44 -9 -121 47 -121 12 0
62 20 112 45 122 61 221 85 354 85 121 0 209 -16 302 -55 206 -87 368 -260
442 -473 27 -76 31 -104 35 -218 4 -109 1 -145 -17 -215 -145 -583 -857 -792
-1293 -381 -259 245 -319 620 -148 939 28 51 50 100 50 107 0 7 -9 25 -21 40
-15 19 -30 26 -55 26 -45 0 -67 -24 -121 -132 -80 -162 -113 -344 -93 -516 51
-434 385 -769 820 -822 46 -5 90 -10 97 -10 10 0 13 -22 13 -80 l0 -80 -85 0
c-222 0 -442 -91 -613 -254 -515 -489 -315 -1345 364 -1559 77 -24 269 -52
310 -45 18 3 19 -7 25 -137 4 -106 10 -154 26 -197 51 -138 172 -251 312 -292
49 -14 189 -16 1255 -16 985 0 1210 3 1252 14 129 34 238 125 301 252 l38 78
3 148 c2 81 6 148 8 148 3 0 48 5 101 11 328 36 599 230 743 530 66 139 83
220 83 394 0 173 -16 249 -82 391 -142 302 -436 507 -761 532 l-85 7 -3 76 -3
77 73 7 c418 39 744 317 845 721 26 103 23 333 -5 436 -109 401 -449 676 -867
701 l-40 2 -6 97 c-5 86 -10 106 -43 173 -62 125 -171 217 -300 251 -42 11
-266 14 -1256 13 -1141 0 -1208 -1 -1262 -18z m2540 -159 c107 -57 168 -157
179 -290 l6 -81 -39 -7 c-21 -4 -55 -13 -75 -20 l-36 -12 -5 69 c-7 89 -43
151 -112 194 -49 30 -50 30 -219 34 -140 2 -176 0 -213 -14 -53 -20 -91 -63
-99 -113 -11 -61 -14 -69 -41 -80 -18 -9 -193 -12 -623 -12 -681 0 -635 -6
-652 85 -11 59 -56 110 -109 125 -56 16 -318 12 -376 -5 -93 -27 -154 -112
-154 -215 0 -65 -1 -66 -60 -51 -19 5 -48 12 -64 16 l-28 6 4 87 c5 107 33
168 108 235 90 81 -13 76 1350 74 l1215 -2 43 -23z m-2067 -302 c11 -68 51
-121 116 -154 30 -15 98 -16 691 -14 l658 3 36 25 c45 30 85 90 93 141 l7 39
149 0 c146 0 151 -1 174 -25 23 -22 25 -32 25 -107 l-1 -83 -52 -32 c-71 -43
-179 -143 -239 -222 -65 -86 -132 -225 -160 -331 -31 -120 -31 -339 0 -453 61
-223 197 -416 383 -543 l69 -48 0 -192 0 -192 -77 -55 c-43 -30 -111 -89 -151
-131 -66 -70 -73 -81 -70 -113 4 -45 44 -79 81 -69 13 3 58 40 98 82 167 171
341 246 573 245 138 0 236 -24 361 -89 72 -37 108 -64 180 -137 173 -173 244
-356 232 -595 -26 -517 -547 -865 -1036 -692 -356 127 -572 491 -510 863 16
96 15 116 -8 141 -22 24 -78 23 -102 -1 -50 -50 -63 -346 -22 -496 58 -217
204 -422 383 -542 l68 -45 0 -133 c0 -116 -2 -136 -19 -156 l-19 -24 -1099 -3
c-787 -2 -1106 1 -1125 9 -39 16 -48 55 -48 205 l0 132 48 35 c60 45 179 168
221 229 49 73 108 204 132 293 32 117 32 336 1 454 -56 208 -176 389 -344 518
l-58 44 0 207 0 208 67 44 c180 118 320 312 383 531 33 111 38 304 12 429 -49
237 -192 450 -392 585 l-70 46 0 69 c0 77 12 113 44 128 12 7 81 10 166 9
l145 -2 6 -35z m2572 -226 c368 -83 624 -422 604 -804 -15 -286 -180 -534
-442 -661 -113 -54 -197 -73 -335 -73 -138 0 -222 19 -335 73 -378 183 -544
621 -384 1008 92 219 300 397 534 454 92 23 263 24 358 3z m-3073 -1779 c0
-87 -4 -135 -10 -135 -6 0 -40 9 -75 21 l-65 21 0 97 0 98 63 15 c34 9 68 16
75 17 9 1 12 -32 12 -134z m2700 110 l45 -11 3 -90 3 -91 -53 -12 c-29 -6 -63
-14 -75 -17 -23 -6 -23 -6 -23 120 l0 126 28 -7 c15 -3 47 -12 72 -18z m-2865
-356 c339 -85 585 -404 585 -759 0 -533 -524 -907 -1031 -735 -302 103 -510
378 -526 695 -12 239 59 422 232 595 72 73 108 100 180 137 108 55 184 78 285
87 104 9 182 3 275 -20z m165 -1744 c0 -140 10 -173 71 -233 66 -65 19 -63
1251 -60 l1115 3 49 30 c30 19 60 49 79 79 28 46 30 57 34 168 2 65 6 118 10
118 3 -1 35 -9 71 -19 l65 -18 -1 -129 c0 -117 -2 -134 -26 -186 -35 -75 -103
-141 -174 -167 -54 -21 -67 -21 -1248 -21 -1341 0 -1244 -6 -1336 77 -28 25
-63 69 -78 97 -25 47 -27 62 -30 196 l-4 146 64 21 c34 12 69 22 76 22 9 1 12
-30 12 -124z"/>
<path d="M2552 4830 c-67 -28 -39 -140 36 -140 31 0 72 43 72 75 0 30 -41 75
-67 74 -10 0 -28 -4 -41 -9z"/>
<path d="M2424 3210 c-240 -63 -425 -247 -490 -488 -20 -75 -20 -249 0 -322
l15 -55 -44 -127 c-51 -147 -51 -172 2 -218 42 -38 66 -38 177 0 l87 29 52
-33 c122 -77 257 -112 405 -103 248 14 450 151 563 382 214 439 -114 957 -605
954 -55 0 -119 -7 -162 -19z m286 -141 c85 -19 172 -69 241 -138 212 -211 211
-531 -1 -741 -112 -111 -235 -157 -396 -148 -103 6 -171 29 -265 90 -78 50
-116 56 -191 29 -32 -11 -58 -17 -58 -13 0 4 14 48 31 97 l31 90 -18 75 c-71
293 75 560 356 651 62 20 199 24 270 8z"/>
<path d="M2395 2796 c-27 -27 -55 -112 -55 -166 0 -92 41 -151 153 -219 98
-59 153 -74 217 -60 158 35 250 237 110 241 -25 1 -40 -8 -73 -44 -62 -67 -75
-68 -165 -15 -90 52 -103 74 -83 140 25 83 25 97 0 123 -29 31 -72 32 -104 0z"/>
<path d="M3966 1985 c-56 -30 -55 -23 -56 -388 0 -214 4 -345 10 -358 13 -23
61 -49 92 -49 13 0 118 54 233 121 328 189 362 210 374 236 19 41 13 81 -16
112 -33 34 -542 329 -581 337 -15 2 -40 -2 -56 -11z m292 -287 c104 -60 170
-104 164 -110 -13 -13 -353 -208 -363 -208 -5 0 -9 97 -9 216 0 202 1 216 17
209 10 -3 96 -52 191 -107z"/>
<path d="M4195 4145 c-51 -18 -120 -91 -134 -141 -6 -21 -11 -94 -11 -161 l0
-123 -73 0 c-87 0 -117 -19 -117 -75 0 -53 36 -75 121 -75 l69 0 0 -248 c0
-247 0 -249 23 -270 33 -31 80 -29 106 4 20 25 21 39 21 270 l0 244 70 0 c62
0 74 3 95 25 32 31 33 74 2 103 -19 18 -35 22 -95 22 l-72 0 0 123 c0 116 1
125 23 145 21 20 34 22 134 22 96 0 114 3 137 21 34 27 36 77 3 107 -21 20
-34 22 -143 22 -76 -1 -133 -6 -159 -15z"/>
<path d="M955 2045 c-27 -13 -57 -30 -65 -37 -31 -26 -68 -84 -81 -125 -7 -24
-13 -43 -14 -43 -1 0 -24 7 -51 17 -59 20 -110 51 -144 88 -47 51 -107 68
-152 44 -55 -30 -85 -216 -54 -336 21 -83 45 -128 99 -189 l45 -50 -48 -17
c-55 -20 -76 -55 -67 -112 15 -93 94 -136 264 -143 325 -13 570 149 660 438
15 47 37 99 49 115 45 60 78 147 79 207 0 49 -4 61 -29 87 -39 41 -77 47 -143
25 -44 -15 -57 -16 -71 -6 -90 65 -192 79 -277 37z m185 -157 c39 -29 50 -32
111 -32 l68 1 -16 -31 c-9 -17 -28 -47 -43 -66 -14 -19 -37 -71 -49 -115 -12
-44 -34 -100 -48 -125 -86 -147 -245 -231 -438 -230 l-80 1 35 18 c63 31 79
45 89 74 16 43 -4 73 -71 109 -108 57 -173 160 -166 262 l3 46 46 -30 c66 -44
153 -71 240 -77 69 -5 79 -3 98 16 13 13 21 34 21 54 0 136 100 198 200 125z"/>
<path d="M600 4124 c-46 -20 -87 -59 -113 -109 -21 -38 -22 -54 -25 -368 -4
-379 1 -410 68 -477 67 -67 98 -72 477 -68 315 3 330 4 369 25 52 28 100 82
114 130 8 26 10 153 8 389 l-3 350 -28 42 c-15 23 -46 54 -69 69 l-42 28 -360
2 c-306 2 -366 0 -396 -13z m732 -151 c17 -15 18 -39 18 -349 l0 -333 -26 -20
c-26 -20 -38 -21 -333 -21 -168 0 -316 3 -329 6 -48 13 -52 39 -52 372 0 298
1 310 21 336 l20 26 331 0 c294 0 333 -2 350 -17z"/>
<path d="M928 3836 c-65 -18 -116 -60 -144 -120 -43 -91 -27 -175 45 -247 113
-114 283 -81 361 70 17 33 16 129 -2 171 -42 99 -155 154 -260 126z m86 -147
c33 -15 50 -57 37 -92 -19 -49 -79 -62 -118 -25 -37 35 -26 99 20 118 30 12
32 12 61 -1z"/>
</g>
</svg>
