<?xml version="1.0" encoding="UTF-8" standalone="no"?>
<svg
   xmlns:dc="http://purl.org/dc/elements/1.1/"
   xmlns:cc="http://creativecommons.org/ns#"
   xmlns:rdf="http://www.w3.org/1999/02/22-rdf-syntax-ns#"
   xmlns:svg="http://www.w3.org/2000/svg"
   xmlns="http://www.w3.org/2000/svg"
   xmlns:sodipodi="http://sodipodi.sourceforge.net/DTD/sodipodi-0.dtd"
   xmlns:inkscape="http://www.inkscape.org/namespaces/inkscape"
   version="1.0"
   width="512.000000pt"
   height="512.000000pt"
   viewBox="0 0 512.000000 512.000000"
   preserveAspectRatio="xMidYMid meet"
   id="svg49"
   sodipodi:docname="subirBlanco.svg"
   inkscape:version="0.92.5 (2060ec1f9f, 2020-04-08)">
  <metadata
     id="metadata55">
    <rdf:RDF>
      <cc:Work
         rdf:about="">
        <dc:format>image/svg+xml</dc:format>
        <dc:type
           rdf:resource="http://purl.org/dc/dcmitype/StillImage" />
        <dc:title></dc:title>
      </cc:Work>
    </rdf:RDF>
  </metadata>
  <defs
     id="defs53" />
  <sodipodi:namedview
     pagecolor="#ffffff"
     bordercolor="#666666"
     borderopacity="1"
     objecttolerance="10"
     gridtolerance="10"
     guidetolerance="10"
     inkscape:pageopacity="0"
     inkscape:pageshadow="2"
     inkscape:window-width="1856"
     inkscape:window-height="1016"
     id="namedview51"
     showgrid="false"
     inkscape:zoom="1.2539063"
     inkscape:cx="370.44237"
     inkscape:cy="341.33333"
     inkscape:window-x="64"
     inkscape:window-y="27"
     inkscape:window-maximized="1"
     inkscape:current-layer="svg49" />
  <g
     transform="translate(0.000000,512.000000) scale(0.100000,-0.100000)"
     fill="#000000"
     stroke="none"
     id="g47">
    <path
       d="M2445 4931 c-33 -19 -243 -223 -611 -593 -528 -530 -563 -566 -579 -617 -49 -150 59 -302 214 -304 102 -1 115 10 496 392 192 193 353 351 357 351 5 0 8 -650 8 -1445 0 -1596 -5 -1482 63 -1554 90 -95 244 -95 334 0 68 72 63 -42 63 1554 0 795 3 1445 8 1445 4 0 165 -158 357 -351 381 -382 394 -393 496 -392 154 2 258 146 214 299 -17 59 -21 63 -578 622 -369 370 -579 574 -612 593 -41 24 -61 29 -115 29 -54 0 -74 -5 -115 -29z"
       id="path43"
       style="fill:#ffffff" />
    <path
       d="M177 2629 c-45 -11 -98 -45 -127 -82 -51 -65 -50 -31 -50 -1156 l0 -1046 24 -50 c27 -58 78 -107 133 -126 57 -21 4749 -21 4806 0 55 19 106 68 133 126 l24 50 0 1046 c0 1157 3 1102 -64 1171 -49 50 -100 72 -171 71 -95 0 -172 -50 -212 -138 -17 -37 -18 -98 -21 -957 l-3 -918 -2089 0 -2089 0 -3 918 c-3 859 -4 920 -21 957 -47 104 -161 161 -270 134z"
       id="path45"
       style="fill:#ffffff" />
  </g>
</svg>
