<?xml version="1.0" standalone="no"?>
<!DOCTYPE svg PUBLIC "-//W3C//DTD SVG 20010904//EN"
 "http://www.w3.org/TR/2001/REC-SVG-20010904/DTD/svg10.dtd">
<svg version="1.0" xmlns="http://www.w3.org/2000/svg"
 width="512.000000pt" height="512.000000pt" viewBox="0 0 512.000000 512.000000"
 preserveAspectRatio="xMidYMid meet">

<g transform="translate(0.000000,512.000000) scale(0.100000,-0.100000)"
fill="#000000" stroke="none">
<path d="M2445 4931 c-33 -19 -243 -223 -611 -593 -528 -530 -563 -566 -579
-617 -49 -150 59 -302 214 -304 102 -1 115 10 496 392 192 193 353 351 357
351 5 0 8 -650 8 -1445 0 -1596 -5 -1482 63 -1554 90 -95 244 -95 334 0 68 72
63 -42 63 1554 0 795 3 1445 8 1445 4 0 165 -158 357 -351 381 -382 394 -393
496 -392 154 2 258 146 214 299 -17 59 -21 63 -578 622 -369 370 -579 574
-612 593 -41 24 -61 29 -115 29 -54 0 -74 -5 -115 -29z"/>
<path d="M177 2629 c-45 -11 -98 -45 -127 -82 -51 -65 -50 -31 -50 -1156 l0
-1046 24 -50 c27 -58 78 -107 133 -126 57 -21 4749 -21 4806 0 55 19 106 68
133 126 l24 50 0 1046 c0 1157 3 1102 -64 1171 -49 50 -100 72 -171 71 -95 0
-172 -50 -212 -138 -17 -37 -18 -98 -21 -957 l-3 -918 -2089 0 -2089 0 -3 918
c-3 859 -4 920 -21 957 -47 104 -161 161 -270 134z"/>
</g>
</svg>
