<?xml version="1.0" standalone="no"?>
<!DOCTYPE svg PUBLIC "-//W3C//DTD SVG 20010904//EN"
 "http://www.w3.org/TR/2001/REC-SVG-20010904/DTD/svg10.dtd">
<svg version="1.0" xmlns="http://www.w3.org/2000/svg"
 width="512.000000pt" height="512.000000pt" viewBox="0 0 512.000000 512.000000"
 preserveAspectRatio="xMidYMid meet">

<g transform="translate(0.000000,512.000000) scale(0.100000,-0.100000)"
fill="#000000" stroke="none">
<path d="M815 5107 c-86 -29 -155 -92 -194 -182 -7 -16 -16 -69 -19 -117 l-5
-88 -116 0 c-180 0 -273 -31 -363 -121 -28 -28 -63 -78 -81 -117 l-32 -67 0
-2056 0 -2055 37 -76 c45 -91 103 -147 196 -191 l67 -32 2256 0 2255 0 76 37
c91 45 147 103 191 196 l32 67 0 2055 0 2055 -32 67 c-18 39 -53 89 -81 117
-90 90 -183 121 -363 121 l-116 0 -5 88 c-8 138 -68 236 -177 285 -71 33 -189
31 -257 -5 -64 -34 -128 -105 -148 -165 -9 -27 -16 -80 -16 -125 l0 -78 -105
0 -105 0 0 78 c0 98 -20 157 -72 217 -142 161 -395 129 -489 -60 -27 -55 -33
-82 -37 -151 l-5 -84 -547 0 -547 0 -5 83 c-7 137 -71 242 -177 291 -70 32
-189 29 -257 -6 -54 -28 -112 -86 -140 -140 -12 -23 -19 -64 -22 -130 l-4 -98
-104 0 -104 0 0 78 c0 45 -7 98 -16 125 -21 61 -84 132 -148 164 -61 31 -160
40 -221 20z m162 -222 c22 -26 23 -32 23 -266 l0 -241 -29 -29 c-57 -57 -151
-27 -166 52 -3 19 -5 130 -3 247 l3 214 34 30 c29 26 39 30 75 25 27 -4 49
-15 63 -32z m795 6 l33 -29 3 -214 c2 -117 0 -228 -3 -247 -15 -79 -109 -109
-166 -52 l-29 29 0 239 c0 203 2 242 16 261 34 49 99 55 146 13z m1715 -6 c22
-26 23 -32 23 -266 l0 -241 -29 -29 c-57 -57 -151 -27 -166 52 -3 19 -5 130
-3 247 l3 214 34 30 c29 26 39 30 75 25 27 -4 49 -15 63 -32z m795 6 l33 -29
3 -214 c2 -117 0 -228 -3 -247 -15 -79 -109 -109 -166 -52 l-29 29 0 239 c0
203 2 242 16 261 34 49 99 55 146 13z m-3680 -461 c9 -147 63 -231 186 -288
47 -21 65 -24 131 -20 87 5 140 28 196 83 60 61 78 108 83 218 l4 98 102 -3
101 -3 5 -95 c6 -107 26 -155 85 -215 56 -55 109 -78 196 -83 66 -4 84 -1 131
20 123 57 177 141 186 288 l5 90 547 0 547 0 5 -90 c9 -147 63 -231 186 -288
47 -21 65 -24 131 -20 87 5 140 28 196 83 59 60 79 108 85 215 l5 95 103 3
102 3 0 -88 c0 -103 24 -166 84 -226 57 -57 110 -80 197 -85 66 -4 84 -1 131
20 123 57 177 141 186 288 l5 90 117 0 c109 0 122 -2 171 -28 43 -22 59 -38
81 -81 l28 -53 0 -219 0 -219 -2360 0 -2360 0 0 214 c0 272 12 310 114 361 45
22 62 25 167 25 l116 0 5 -90z m4318 -1790 l0 -1080 -494 0 c-271 0 -507 -3
-525 -6 -17 -4 -42 -18 -56 -31 l-25 -26 -2 -446 -3 -446 -1807 -3 -1808 -2 0
1560 0 1560 2360 0 2360 0 0 -1080z m-220 -1285 c0 -5 -649 -598 -667 -609
-10 -6 -13 58 -13 303 l0 311 340 0 c187 0 340 -2 340 -5z m210 -1017 c-14
-51 -77 -114 -128 -128 -28 -7 -713 -9 -2243 -8 l-2204 3 -38 24 c-46 28 -83
82 -92 134 l-7 37 1866 0 c1591 0 1871 2 1894 14 15 8 236 205 492 438 l465
423 3 -449 c1 -293 -1 -462 -8 -488z"/>
<path d="M544 3495 c-42 -29 -45 -56 -42 -373 l3 -302 28 -27 27 -28 327 -3
c234 -2 335 1 355 9 58 24 58 25 58 370 l0 317 -31 26 -31 26 -337 0 c-279 0
-340 -3 -357 -15z m556 -360 l0 -175 -200 0 -200 0 0 175 0 175 200 0 200 0 0
-175z"/>
<path d="M1639 3481 l-29 -29 0 -314 c0 -342 0 -343 58 -367 20 -8 121 -11
355 -9 l327 3 27 28 28 27 3 302 c2 215 -1 310 -9 330 -24 58 -23 58 -392 58
l-339 0 -29 -29z m571 -346 l0 -175 -200 0 -200 0 0 175 0 175 200 0 200 0 0
-175z"/>
<path d="M2757 3499 c-44 -25 -47 -52 -47 -368 l0 -301 29 -32 29 -33 328 -3
c235 -2 336 1 356 9 58 24 58 25 58 367 l0 314 -29 29 -29 29 -339 0 c-211 0
-345 -4 -356 -11z m553 -364 l0 -175 -200 0 -200 0 0 175 0 175 200 0 200 0 0
-175z"/>
<path d="M3851 3484 l-31 -26 0 -317 c0 -345 0 -346 58 -370 20 -8 121 -11
355 -9 l327 3 27 28 28 27 3 302 c2 215 -1 310 -9 330 -24 58 -23 58 -390 58
l-337 0 -31 -26z m569 -349 l0 -175 -200 0 -200 0 0 175 0 175 200 0 200 0 0
-175z"/>
<path d="M544 2515 c-42 -29 -45 -56 -42 -373 l3 -302 28 -27 27 -28 327 -3
c234 -2 335 1 355 9 58 24 58 25 58 369 l0 316 -28 27 -28 27 -340 0 c-281 0
-343 -2 -360 -15z m556 -360 l0 -175 -200 0 -200 0 0 175 0 175 200 0 200 0 0
-175z"/>
<path d="M1636 2499 l-26 -31 0 -312 c0 -340 0 -341 58 -365 20 -8 121 -11
355 -9 l327 3 27 28 28 27 3 302 c2 215 -1 310 -9 330 -24 58 -23 58 -395 58
l-342 0 -26 -31z m574 -344 l0 -175 -200 0 -200 0 0 175 0 175 200 0 200 0 0
-175z"/>
<path d="M2754 2515 c-42 -29 -45 -56 -42 -373 l3 -302 28 -27 27 -28 327 -3
c234 -2 335 1 355 9 58 24 58 25 58 365 l0 312 -26 31 -26 31 -342 0 c-283 0
-345 -2 -362 -15z m556 -360 l0 -175 -200 0 -200 0 0 175 0 175 200 0 200 0 0
-175z"/>
<path d="M3846 2504 l-26 -27 0 -316 c0 -345 0 -346 58 -370 20 -8 121 -11
355 -9 l327 3 27 28 28 27 3 302 c2 215 -1 310 -9 330 -24 58 -23 58 -395 58
l-341 0 -27 -26z m574 -349 l0 -175 -200 0 -200 0 0 175 0 175 200 0 200 0 0
-175z"/>
<path d="M572 1549 c-20 -6 -40 -22 -52 -42 -19 -30 -20 -52 -20 -327 0 -325
2 -333 60 -362 31 -16 70 -18 343 -18 327 0 363 4 386 48 7 14 11 129 11 335
l0 314 -25 25 c-14 14 -39 28 -56 32 -50 10 -610 5 -647 -5z m528 -369 l0
-180 -200 0 -200 0 0 173 c0 96 3 177 7 180 3 4 93 7 200 7 l193 0 0 -180z"/>
<path d="M1685 1553 c-11 -3 -32 -17 -47 -31 l-28 -26 0 -313 c0 -346 1 -351
62 -372 20 -7 146 -11 342 -11 293 0 313 1 344 20 18 11 37 32 43 47 6 16 9
141 7 329 -3 338 -2 333 -77 354 -36 10 -606 12 -646 3z m523 -375 l2 -178
-200 0 -200 0 0 180 0 180 198 -2 197 -3 3 -177z"/>
<path d="M2784 1550 c-17 -6 -39 -19 -50 -31 -18 -20 -19 -40 -19 -340 l0
-319 28 -27 27 -28 313 -3 c171 -2 326 0 343 3 18 3 44 17 58 32 l26 26 0 316
0 317 -31 30 -30 29 -317 2 c-174 1 -331 -2 -348 -7z m526 -370 l0 -180 -200
0 -200 0 0 173 c0 96 3 177 7 180 3 4 93 7 200 7 l193 0 0 -180z"/>
</g>
</svg>
