<?xml version="1.0" encoding="UTF-8" standalone="no"?>
<svg
   xmlns:dc="http://purl.org/dc/elements/1.1/"
   xmlns:cc="http://creativecommons.org/ns#"
   xmlns:rdf="http://www.w3.org/1999/02/22-rdf-syntax-ns#"
   xmlns:svg="http://www.w3.org/2000/svg"
   xmlns="http://www.w3.org/2000/svg"
   xmlns:sodipodi="http://sodipodi.sourceforge.net/DTD/sodipodi-0.dtd"
   xmlns:inkscape="http://www.inkscape.org/namespaces/inkscape"
   version="1.0"
   width="512.000000pt"
   height="512.000000pt"
   viewBox="0 0 512.000000 512.000000"
   preserveAspectRatio="xMidYMid meet"
   id="svg92"
   sodipodi:docname="buzonBlanco.svg"
   inkscape:version="0.92.5 (2060ec1f9f, 2020-04-08)">
  <metadata
     id="metadata98">
    <rdf:RDF>
      <cc:Work
         rdf:about="">
        <dc:format>image/svg+xml</dc:format>
        <dc:type
           rdf:resource="http://purl.org/dc/dcmitype/StillImage" />
        <dc:title></dc:title>
      </cc:Work>
    </rdf:RDF>
  </metadata>
  <defs
     id="defs96" />
  <sodipodi:namedview
     pagecolor="#ffffff"
     bordercolor="#666666"
     borderopacity="1"
     objecttolerance="10"
     gridtolerance="10"
     guidetolerance="10"
     inkscape:pageopacity="0"
     inkscape:pageshadow="2"
     inkscape:window-width="1920"
     inkscape:window-height="1043"
     id="namedview94"
     showgrid="false"
     inkscape:zoom="0.63308396"
     inkscape:cx="847.65462"
     inkscape:cy="448.10558"
     inkscape:window-x="0"
     inkscape:window-y="0"
     inkscape:window-maximized="1"
     inkscape:current-layer="svg92" />
  <g
     transform="translate(0.000000,512.000000) scale(0.100000,-0.100000)"
     fill="#000000"
     stroke="none"
     id="g90">
    <path
       d="M4508 5111 c-70 -23 -117 -64 -295 -263 -103 -116 -202 -226 -220 -246 l-31 -37 -29 26 c-68 64 65 59 -1681 59 l-1589 0 -44 -23 c-24 -13 -57 -43 -74 -66 l-30 -43 -3 -707 -2 -708 -88 -5 c-68 -4 -103 -12 -151 -33 -78 -36 -160 -121 -193 -202 l-23 -58 -3 -1195 c-2 -701 1 -1227 7 -1273 17 -140 88 -242 211 -301 l65 -31 556 -3 c552 -3 556 -2 582 18 37 29 37 80 1 109 -26 21 -36 21 -553 21 -340 0 -540 4 -564 11 -50 13 -109 67 -133 120 l-18 42 24 16 c13 9 368 237 788 507 l765 491 191 -140 c104 -77 204 -144 221 -150 46 -14 77 3 298 167 186 138 200 146 220 133 12 -8 339 -219 727 -469 388 -250 738 -476 778 -502 39 -26 72 -51 72 -56 0 -46 -63 -122 -125 -151 -38 -18 -92 -19 -1226 -19 -1179 0 -1185 0 -1207 -20 -30 -28 -30 -82 0 -110 22 -20 28 -20 1208 -20 1317 0 1243 -4 1347 67 80 54 130 130 152 231 16 75 16 2429 0 2504 -22 101 -72 177 -152 231 -66 45 -142 67 -229 67 l-68 0 0 128 0 127 113 125 c579 641 923 1031 938 1065 13 27 19 64 19 116 0 116 -31 170 -173 298 -133 121 -191 152 -285 157 -37 2 -79 0 -94 -5z m147 -160 c51 -24 214 -171 238 -214 9 -17 17 -52 17 -78 0 -53 -18 -81 -127 -197 l-68 -72 -193 174 c-106 96 -194 177 -195 179 -4 10 168 193 197 210 39 22 81 21 131 -2z m-225 -505 c96 -87 175 -163 175 -170 0 -14 -1291 -1456 -1304 -1456 -6 0 -307 265 -375 330 -18 18 -15 22 113 165 87 98 131 154 131 169 0 39 -37 76 -75 76 -37 0 -48 -10 -246 -232 l-114 -127 -49 -133 c-27 -73 -76 -206 -108 -295 l-60 -163 -652 0 c-643 0 -653 0 -674 -20 -32 -30 -30 -82 4 -109 26 -21 35 -21 645 -21 341 0 619 -1 619 -2 0 -2 -7 -25 -15 -51 -12 -42 -13 -53 -1 -82 8 -18 24 -40 37 -49 52 -36 78 -26 487 178 l389 194 239 267 239 267 3 -393 c2 -365 1 -394 -15 -410 -10 -9 -374 -277 -809 -597 l-792 -580 -781 572 -780 571 -1 1062 c0 952 2 1063 16 1077 14 14 171 16 1578 16 1201 0 1565 -3 1574 -12 31 -31 11 -58 -260 -360 -318 -353 -318 -353 -318 -385 0 -32 42 -73 76 -73 34 0 25 -9 503 523 356 397 394 437 409 424 9 -8 96 -85 192 -171z m-1407 -1585 c81 -73 147 -135 147 -137 0 -3 -50 -29 -111 -59 l-111 -55 -30 25 c-79 67 -168 151 -168 160 0 6 18 61 41 123 l42 113 21 -19 c11 -10 87 -78 169 -151z m-2513 -157 l0 -246 -53 39 c-30 21 -97 70 -150 108 l-97 70 0 58 c0 66 21 116 68 160 40 38 94 56 170 57 l62 0 0 -246z m3635 235 c61 -17 129 -91 145 -157 7 -29 11 -55 9 -56 -21 -19 -296 -216 -301 -216 -5 0 -8 99 -8 220 l0 220 58 0 c31 0 75 -5 97 -11z m-1400 -350 c25 -23 45 -44 45 -48 0 -4 -39 -26 -86 -49 -47 -24 -84 -39 -82 -34 1 4 16 45 32 90 16 45 33 82 38 82 5 0 29 -19 53 -41z m1555 -1069 c0 -556 -3 -1010 -7 -1010 -13 1 -1457 936 -1460 946 -2 9 1445 1074 1460 1074 4 0 7 -454 7 -1010z m-3328 412 c517 -379 675 -499 665 -508 -10 -9 -1377 -887 -1414 -908 -10 -6 -13 194 -13 984 l0 992 43 -32 c23 -17 347 -255 719 -528z"
       id="path82"
       style="fill:#ffffff" />
    <path
       d="M1190 4050 c-27 -27 -26 -81 1 -106 20 -18 40 -19 301 -19 l280 0 19 24 c25 30 24 76 -1 101 -19 19 -33 20 -300 20 -267 0 -281 -1 -300 -20z"
       id="path84"
       style="fill:#ffffff" />
    <path
       d="M1220 3583 c-51 -19 -68 -85 -30 -123 20 -20 33 -20 684 -20 l665 0 20 26 c36 46 23 94 -30 113 -33 11 -1278 15 -1309 4z"
       id="path86"
       style="fill:#ffffff" />
    <path
       d="M1196 3079 c-33 -26 -36 -79 -6 -109 19 -19 33 -20 538 -20 508 0 519 0 540 20 32 30 30 82 -4 109 -26 21 -36 21 -534 21 -498 0 -508 0 -534 -21z"
       id="path88"
       style="fill:#ffffff" />
  </g>
</svg>
