<?xml version="1.0" encoding="UTF-8" standalone="no"?>
<svg
   xmlns:dc="http://purl.org/dc/elements/1.1/"
   xmlns:cc="http://creativecommons.org/ns#"
   xmlns:rdf="http://www.w3.org/1999/02/22-rdf-syntax-ns#"
   xmlns:svg="http://www.w3.org/2000/svg"
   xmlns="http://www.w3.org/2000/svg"
   xmlns:sodipodi="http://sodipodi.sourceforge.net/DTD/sodipodi-0.dtd"
   xmlns:inkscape="http://www.inkscape.org/namespaces/inkscape"
   version="1.0"
   width="512.000000pt"
   height="512.000000pt"
   viewBox="0 0 512.000000 512.000000"
   preserveAspectRatio="xMidYMid meet"
   id="svg64"
   sodipodi:docname="galeriaBlanco.svg"
   inkscape:version="0.92.5 (2060ec1f9f, 2020-04-08)">
  <metadata
     id="metadata70">
    <rdf:RDF>
      <cc:Work
         rdf:about="">
        <dc:format>image/svg+xml</dc:format>
        <dc:type
           rdf:resource="http://purl.org/dc/dcmitype/StillImage" />
        <dc:title></dc:title>
      </cc:Work>
    </rdf:RDF>
  </metadata>
  <defs
     id="defs68" />
  <sodipodi:namedview
     pagecolor="#ffffff"
     bordercolor="#666666"
     borderopacity="1"
     objecttolerance="10"
     gridtolerance="10"
     guidetolerance="10"
     inkscape:pageopacity="0"
     inkscape:pageshadow="2"
     inkscape:window-width="1920"
     inkscape:window-height="1080"
     id="namedview66"
     showgrid="false"
     showguides="false"
     inkscape:zoom="1.3200642"
     inkscape:cx="368.9835"
     inkscape:cy="341.33333"
     inkscape:window-x="0"
     inkscape:window-y="0"
     inkscape:window-maximized="1"
     inkscape:current-layer="svg64" />
  <g
     transform="translate(0.000000,512.000000) scale(0.100000,-0.100000)"
     fill="#000000"
     stroke="none"
     id="g62">
    <path
       d="M575 4624 c-88 -19 -185 -60 -258 -108 -91 -60 -198 -182 -245 -278 -77 -157 -73 -67 -70 -1395 l3 -1188 32 -68 c61 -128 191 -231 324 -259 57 -12 58 -12 64 -52 12 -72 72 -182 132 -242 67 -68 172 -121 258 -132 l60 -7 12 -63 c39 -196 179 -327 378 -353 53 -6 649 -9 1790 -7 l1710 3 56 23 c123 49 216 139 262 252 l22 55 3 1294 c2 855 -1 1313 -8 1350 -37 201 -216 351 -420 351 -35 0 -39 3 -45 33 -40 198 -183 336 -395 381 -22 5 -28 14 -38 63 -31 147 -135 265 -293 331 l-64 27 -1600 2 c-1390 1 -1609 0 -1670 -13z m3258 -200 c59 -20 129 -82 156 -137 12 -24 21 -49 21 -55 0 -9 -144 -12 -561 -14 l-561 -3 -29 -33 c-16 -18 -29 -44 -29 -58 0 -32 24 -79 47 -90 10 -5 322 -11 693 -14 l675 -5 53 -29 c59 -33 108 -89 128 -144 l12 -37 -1611 -5 c-1140 -4 -1621 -8 -1642 -16 -158 -58 -267 -181 -295 -333 -6 -34 -10 -476 -10 -1206 l0 -1152 -46 8 c-83 16 -152 72 -191 155 l-23 51 2 1254 c3 1224 3 1255 23 1294 26 54 87 113 144 139 45 21 57 21 711 26 366 3 673 9 682 13 25 13 50 74 43 106 -3 16 -17 39 -31 52 l-26 24 -655 3 c-717 3 -714 3 -832 -56 -66 -33 -171 -134 -202 -193 -12 -24 -31 -68 -43 -99 -20 -55 -21 -63 -24 -1203 l-3 -1148 -22 7 c-43 12 -106 54 -135 90 -65 78 -62 22 -62 1243 0 1219 -2 1173 63 1295 41 78 145 182 223 223 122 65 27 61 1745 62 1400 1 1570 -1 1612 -15z m921 -835 c21 -6 58 -29 81 -51 79 -72 75 -26 73 -964 l-3 -831 -225 169 c-124 94 -242 179 -262 189 -80 41 -208 40 -291 -3 -23 -11 -163 -109 -312 -217 -148 -108 -275 -200 -281 -204 -7 -4 -235 225 -553 553 -621 640 -590 615 -746 615 -78 0 -97 -4 -145 -27 -38 -19 -204 -159 -530 -447 l-475 -420 -3 722 c-2 548 0 733 10 767 15 54 90 134 139 149 49 14 3472 14 3523 0z m-2461 -950 c13 -6 319 -315 680 -687 853 -881 798 -827 846 -827 73 0 121 78 88 141 -9 16 -65 78 -126 139 -61 60 -111 113 -111 117 0 8 489 365 534 390 36 20 98 23 129 6 12 -6 147 -106 300 -221 l277 -210 0 -317 0 -318 -28 -53 c-34 -66 -88 -105 -161 -119 -74 -14 -3379 -14 -3452 0 -70 14 -121 49 -156 107 l-28 48 0 425 0 425 525 463 c289 255 539 473 555 483 33 21 91 25 128 8z"
       id="path56"
       style="fill:#ffffff" />
    <path
       d="M2478 4203 c-46 -29 -60 -81 -34 -132 47 -90 186 -50 186 55 0 16 -12 38 -34 60 -38 38 -75 44 -118 17z"
       id="path58"
       style="fill:#ffffff" />
    <path
       d="M3754 3175 c-102 -32 -210 -119 -253 -203 -126 -248 -4 -539 258 -616 215 -63 455 66 521 281 72 232 -54 468 -289 539 -56 17 -182 17 -237 -1z m249 -223 c179 -124 90 -412 -128 -412 -232 0 -310 315 -105 423 49 26 63 28 121 24 53 -3 75 -10 112 -35z"
       id="path60"
       style="fill:#ffffff" />
  </g>
</svg>
